#define chat_width 8
#define chat_height 8
static unsigned char chat_bits[] = {
   0x7e, 0xa9, 0xff, 0xe5, 0xff, 0x7e, 0x60, 0x40};
