#define earth_width 8
#define earth_height 8
static unsigned char earth_bits[] = {
   0x3c, 0x52, 0xf9, 0xe3, 0xdb, 0x99, 0x52, 0x3c};
