#define q_width 8
#define q_height 8
static unsigned char q_bits[] = {
   0xe0, 0xf0, 0xf8, 0x7c, 0x3a, 0x11, 0x0b, 0x07};
