#define space_width 8
#define space_height 8
static unsigned char space_bits[] = {
   0x18, 0x3c, 0x7e, 0xdb, 0xff, 0x7e, 0x24, 0x42};
