#define term_width 8
#define term_height 8
static unsigned char term_bits[] = {
   0xff, 0x81, 0x85, 0x89, 0x85, 0x81, 0x81, 0xff};
