#define vim_width 8
#define vim_height 8
static unsigned char vim_bits[] = {
   0x81, 0x81, 0xc3, 0x42, 0x66, 0x24, 0x3c, 0x18};
